<svg width="100" height="15" viewBox="0 0 100 15" fill="none" xmlns="http://www.w3.org/2000/svg">
<path d="M0 14.875V0H14.875V2.125H4.25V6.375H12.75V8.5H4.25V12.75H14.875V14.875H0ZM17 14.875V4.25H29.75V6.375H31.875V14.875H27.625V6.375H21.25V14.875H17ZM40.375 14.875V6.375H36.125V4.25H40.375V0H44.625V4.25H48.875V6.375H44.625V14.875H40.375ZM57.375 6.375H59.5V8.5H57.375V14.875H53.125V4.25H57.375V6.375ZM65.875 4.25V6.375H59.5V4.25H65.875ZM70.125 14.875V12.75H68V10.625H70.125V8.5H78.625V6.375H70.125V4.25H80.75V6.375H82.875V14.875H70.125ZM72.25 12.75H78.625V10.625H72.25V12.75ZM91.375 6.375H93.5V8.5H91.375V14.875H87.125V4.25H91.375V6.375ZM99.875 4.25V6.375H93.5V4.25H99.875Z" fill="#212339"/>
</svg>
