<svg width="143" height="17" viewBox="0 0 143 17" fill="none" xmlns="http://www.w3.org/2000/svg">
<path d="M2.15894 14.5V12.5H0.158936V10.5H4.15894V12.5H10.1589V0.5H14.1589V12.5H12.1589V14.5H2.15894ZM18.1589 14.5V12.5H16.1589V6.5H18.1589V4.5H28.1589V6.5H30.1589V12.5H28.1589V14.5H18.1589ZM20.1589 12.5H26.1589V6.5H20.1589V12.5ZM34.1589 16.5V14.5H42.1589V12.5H34.1589V10.5H32.1589V6.5H34.1589V4.5H46.1589V14.5H44.1589V16.5H34.1589ZM36.1589 10.5H42.1589V6.5H36.1589V10.5ZM50.1589 14.5V12.5H48.1589V10.5H50.1589V8.5H58.1589V6.5H50.1589V4.5H60.1589V6.5H62.1589V14.5H50.1589ZM52.1589 12.5H58.1589V10.5H52.1589V12.5ZM66.1589 14.5V12.5H64.1589V6.5H66.1589V4.5H74.1589V0.5H78.1589V14.5H66.1589ZM68.1589 12.5H74.1589V6.5H68.1589V12.5ZM82.1589 14.5V12.5H80.1589V6.5H82.1589V4.5H92.1589V6.5H94.1589V12.5H92.1589V14.5H82.1589ZM84.1589 12.5H90.1589V6.5H84.1589V12.5ZM102.159 6.5H104.159V8.5H102.159V14.5H98.1589V4.5H102.159V6.5ZM110.159 4.5V6.5H104.159V4.5H110.159ZM130.159 14.5V12.5H134.159V4.5H132.159V2.5H134.159V0.5H138.159V12.5H142.159V14.5H130.159Z" fill="#F84020"/>
</svg>
