<svg width="143" height="17" viewBox="0 0 143 17" fill="none" xmlns="http://www.w3.org/2000/svg">
<path d="M2.3689 14.5V12.5H0.368896V10.5H4.3689V12.5H10.3689V0.5H14.3689V12.5H12.3689V14.5H2.3689ZM18.3689 14.5V12.5H16.3689V6.5H18.3689V4.5H28.3689V6.5H30.3689V12.5H28.3689V14.5H18.3689ZM20.3689 12.5H26.3689V6.5H20.3689V12.5ZM34.3689 16.5V14.5H42.3689V12.5H34.3689V10.5H32.3689V6.5H34.3689V4.5H46.3689V14.5H44.3689V16.5H34.3689ZM36.3689 10.5H42.3689V6.5H36.3689V10.5ZM50.3689 14.5V12.5H48.3689V10.5H50.3689V8.5H58.3689V6.5H50.3689V4.5H60.3689V6.5H62.3689V14.5H50.3689ZM52.3689 12.5H58.3689V10.5H52.3689V12.5ZM66.3689 14.5V12.5H64.3689V6.5H66.3689V4.5H74.3689V0.5H78.3689V14.5H66.3689ZM68.3689 12.5H74.3689V6.5H68.3689V12.5ZM82.3689 14.5V12.5H80.3689V6.5H82.3689V4.5H92.3689V6.5H94.3689V12.5H92.3689V14.5H82.3689ZM84.3689 12.5H90.3689V6.5H84.3689V12.5ZM102.369 6.5H104.369V8.5H102.369V14.5H98.3689V4.5H102.369V6.5ZM110.369 4.5V6.5H104.369V4.5H110.369ZM128.369 14.5V10.5H130.369V8.5H132.369V6.5H136.369V4.5H138.369V2.5H132.369V4.5H128.369V2.5H130.369V0.5H140.369V2.5H142.369V6.5H140.369V8.5H138.369V10.5H134.369V12.5H142.369V14.5H128.369Z" fill="#6F37AF"/>
</svg>
