<svg width="143" height="17" viewBox="0 0 143 17" fill="none" xmlns="http://www.w3.org/2000/svg">
<path d="M2.85254 14.6794V12.6794H0.852539V10.6794H4.85254V12.6794H10.8525V0.679443H14.8525V12.6794H12.8525V14.6794H2.85254ZM18.8525 14.6794V12.6794H16.8525V6.67944H18.8525V4.67944H28.8525V6.67944H30.8525V12.6794H28.8525V14.6794H18.8525ZM20.8525 12.6794H26.8525V6.67944H20.8525V12.6794ZM34.8525 16.6794V14.6794H42.8525V12.6794H34.8525V10.6794H32.8525V6.67944H34.8525V4.67944H46.8525V14.6794H44.8525V16.6794H34.8525ZM36.8525 10.6794H42.8525V6.67944H36.8525V10.6794ZM50.8525 14.6794V12.6794H48.8525V10.6794H50.8525V8.67944H58.8525V6.67944H50.8525V4.67944H60.8525V6.67944H62.8525V14.6794H50.8525ZM52.8525 12.6794H58.8525V10.6794H52.8525V12.6794ZM66.8525 14.6794V12.6794H64.8525V6.67944H66.8525V4.67944H74.8525V0.679443H78.8525V14.6794H66.8525ZM68.8525 12.6794H74.8525V6.67944H68.8525V12.6794ZM82.8525 14.6794V12.6794H80.8525V6.67944H82.8525V4.67944H92.8525V6.67944H94.8525V12.6794H92.8525V14.6794H82.8525ZM84.8525 12.6794H90.8525V6.67944H84.8525V12.6794ZM102.853 6.67944H104.853V8.67944H102.853V14.6794H98.8525V4.67944H102.853V6.67944ZM110.853 4.67944V6.67944H104.853V4.67944H110.853ZM136.853 14.6794V10.6794H128.853V6.67944H130.853V4.67944H132.853V2.67944H134.853V0.679443H140.853V8.67944H142.853V10.6794H140.853V14.6794H136.853ZM132.853 8.67944H136.853V4.67944H134.853V6.67944H132.853V8.67944Z" fill="#FEB019"/>
</svg>
