<svg width="116" height="26" viewBox="0 0 116 26" fill="none" xmlns="http://www.w3.org/2000/svg">
<path d="M2.87329 16.2773V14.2773H0.873291V12.2773H4.87329V14.2773H10.8733V2.27731H14.8733V14.2773H12.8733V16.2773H2.87329ZM18.8733 16.2773V14.2773H16.8733V8.27731H18.8733V6.27731H28.8733V8.27731H30.8733V14.2773H28.8733V16.2773H18.8733ZM20.8733 14.2773H26.8733V8.27731H20.8733V14.2773ZM34.8733 18.2773V16.2773H42.8733V14.2773H34.8733V12.2773H32.8733V8.27731H34.8733V6.27731H46.8733V16.2773H44.8733V18.2773H34.8733ZM36.8733 12.2773H42.8733V8.27731H36.8733V12.2773ZM50.8733 16.2773V14.2773H48.8733V12.2773H50.8733V10.2773H58.8733V8.27731H50.8733V6.27731H60.8733V8.27731H62.8733V16.2773H50.8733ZM52.8733 14.2773H58.8733V12.2773H52.8733V14.2773ZM70.8733 8.27731H72.8733V10.2773H70.8733V16.2773H66.8733V6.27731H70.8733V8.27731ZM78.8733 6.27731V8.27731H72.8733V6.27731H78.8733Z" fill="#FEB019"/>
<path d="M102.791 0.777313L114.791 12.7773L102.791 24.7773V18.7773H91.7905C91.5253 18.7773 91.271 18.672 91.0834 18.4844C90.8959 18.2969 90.7905 18.0425 90.7905 17.7773V7.77731C90.7905 7.5121 90.8959 7.25774 91.0834 7.07021C91.271 6.88267 91.5253 6.77731 91.7905 6.77731H102.791V0.777313Z" fill="#FEB019" stroke="#202020" stroke-width="1.5" stroke-linecap="round" stroke-linejoin="round"/>
</svg>
