<svg width="143" height="17" viewBox="0 0 143 17" fill="none" xmlns="http://www.w3.org/2000/svg">
<path d="M2.09277 14.6794V12.6794H0.0927734V10.6794H4.09277V12.6794H10.0928V0.679443H14.0928V12.6794H12.0928V14.6794H2.09277ZM18.0928 14.6794V12.6794H16.0928V6.67944H18.0928V4.67944H28.0928V6.67944H30.0928V12.6794H28.0928V14.6794H18.0928ZM20.0928 12.6794H26.0928V6.67944H20.0928V12.6794ZM34.0928 16.6794V14.6794H42.0928V12.6794H34.0928V10.6794H32.0928V6.67944H34.0928V4.67944H46.0928V14.6794H44.0928V16.6794H34.0928ZM36.0928 10.6794H42.0928V6.67944H36.0928V10.6794ZM50.0928 14.6794V12.6794H48.0928V10.6794H50.0928V8.67944H58.0928V6.67944H50.0928V4.67944H60.0928V6.67944H62.0928V14.6794H50.0928ZM52.0928 12.6794H58.0928V10.6794H52.0928V12.6794ZM66.0928 14.6794V12.6794H64.0928V6.67944H66.0928V4.67944H74.0928V0.679443H78.0928V14.6794H66.0928ZM68.0928 12.6794H74.0928V6.67944H68.0928V12.6794ZM82.0928 14.6794V12.6794H80.0928V6.67944H82.0928V4.67944H92.0928V6.67944H94.0928V12.6794H92.0928V14.6794H82.0928ZM84.0928 12.6794H90.0928V6.67944H84.0928V12.6794ZM102.093 6.67944H104.093V8.67944H102.093V14.6794H98.0928V4.67944H102.093V6.67944ZM110.093 4.67944V6.67944H104.093V4.67944H110.093ZM130.093 14.6794V12.6794H128.093V10.6794H132.093V12.6794H138.093V8.67944H132.093V6.67944H134.093V4.67944H136.093V2.67944H130.093V0.679443H142.093V2.67944H140.093V4.67944H138.093V6.67944H140.093V8.67944H142.093V12.6794H140.093V14.6794H130.093Z" fill="#00A800"/>
</svg>
