<svg width="395" height="40" viewBox="0 0 395 40" fill="none" xmlns="http://www.w3.org/2000/svg">
<path d="M5 35V30H0V25H10V30H25V20H5V15H0V5H5V0H30V5H35V10H25V5H10V15H30V20H35V30H30V35H5ZM45 35V30H40V10H50V30H65V10H75V35H45Z" fill="#F84020"/>
<path d="M80 40V10H110V15H115V25H110V30H90V40H80ZM90 25H105V15H90V25ZM125 35V30H120V15H125V10H150V15H155V25H130V30H150V35H125ZM130 20H145V15H130V20ZM175 15H180V20H175V35H165V10H175V15ZM195 10V15H180V10H195Z" fill="#FEB019"/>
<path d="M245 35V0H255V30H275V35H245ZM285 35V30H280V10H290V30H305V10H315V35H285Z" fill="#00A800"/>
<path d="M325 35V30H320V15H325V10H345V0H355V35H325ZM330 30H345V15H330V30ZM365 35V30H360V15H365V10H390V15H395V30H390V35H365ZM370 30H385V15H370V30Z" fill="#6F37AF"/>
</svg>
